<mxfile host="app.diagrams.net" agent="Mozilla/5.0 (Windows NT 10.0; Win64; x64) AppleWebKit/537.36 (KHTML, like Gecko) Chrome/139.0.0.0 Safari/537.36 Edg/139.0.0.0" version="28.1.1">
  <diagram name="Page-1" id="ZYxYRGTVgjL93rVSa5fy">
    <mxGraphModel dx="1034" dy="666" grid="1" gridSize="10" guides="1" tooltips="1" connect="1" arrows="1" fold="1" page="1" pageScale="1" pageWidth="850" pageHeight="1100" math="0" shadow="0">
      <root>
        <mxCell id="0" />
        <mxCell id="1" parent="0" />
        <mxCell id="aPp81kiOwZsW8xP06F8O-1" value="Frontend App (Next.js)" style="whiteSpace=wrap;strokeWidth=2;verticalAlign=top;" vertex="1" parent="1">
          <mxGeometry x="20" y="20" width="1164" height="925" as="geometry" />
        </mxCell>
        <mxCell id="aPp81kiOwZsW8xP06F8O-2" value="initApp()" style="whiteSpace=wrap;strokeWidth=2;" vertex="1" parent="aPp81kiOwZsW8xP06F8O-1">
          <mxGeometry x="164" y="197" width="123" height="54" as="geometry" />
        </mxCell>
        <mxCell id="aPp81kiOwZsW8xP06F8O-3" value="parseUTM()" style="whiteSpace=wrap;strokeWidth=2;" vertex="1" parent="aPp81kiOwZsW8xP06F8O-1">
          <mxGeometry x="72" y="326" width="142" height="54" as="geometry" />
        </mxCell>
        <mxCell id="aPp81kiOwZsW8xP06F8O-4" value="loadQuiz()" style="whiteSpace=wrap;strokeWidth=2;" vertex="1" parent="aPp81kiOwZsW8xP06F8O-1">
          <mxGeometry x="263" y="326" width="134" height="54" as="geometry" />
        </mxCell>
        <mxCell id="aPp81kiOwZsW8xP06F8O-5" value="onStartClick()" style="whiteSpace=wrap;strokeWidth=2;" vertex="1" parent="aPp81kiOwZsW8xP06F8O-1">
          <mxGeometry x="251" y="455" width="159" height="54" as="geometry" />
        </mxCell>
        <mxCell id="aPp81kiOwZsW8xP06F8O-6" value="runQuizLoop()" style="whiteSpace=wrap;strokeWidth=2;" vertex="1" parent="aPp81kiOwZsW8xP06F8O-1">
          <mxGeometry x="440" y="584" width="161" height="54" as="geometry" />
        </mxCell>
        <mxCell id="aPp81kiOwZsW8xP06F8O-7" value="inferIntent(features)" style="whiteSpace=wrap;strokeWidth=2;" vertex="1" parent="aPp81kiOwZsW8xP06F8O-1">
          <mxGeometry x="43" y="713" width="209" height="54" as="geometry" />
        </mxCell>
        <mxCell id="aPp81kiOwZsW8xP06F8O-8" value="askMidProgress()" style="whiteSpace=wrap;strokeWidth=2;" vertex="1" parent="aPp81kiOwZsW8xP06F8O-1">
          <mxGeometry x="302" y="713" width="178" height="54" as="geometry" />
        </mxCell>
        <mxCell id="aPp81kiOwZsW8xP06F8O-9" value="applyAdaptation(branch)" style="whiteSpace=wrap;strokeWidth=2;" vertex="1" parent="aPp81kiOwZsW8xP06F8O-1">
          <mxGeometry x="530" y="713" width="238" height="54" as="geometry" />
        </mxCell>
        <mxCell id="aPp81kiOwZsW8xP06F8O-10" value="pickOutro(intent,baby)" style="whiteSpace=wrap;strokeWidth=2;" vertex="1" parent="aPp81kiOwZsW8xP06F8O-1">
          <mxGeometry x="818" y="713" width="225" height="54" as="geometry" />
        </mxCell>
        <mxCell id="aPp81kiOwZsW8xP06F8O-11" value="onCTAClick()" style="whiteSpace=wrap;strokeWidth=2;" vertex="1" parent="aPp81kiOwZsW8xP06F8O-1">
          <mxGeometry x="960" y="842" width="151" height="54" as="geometry" />
        </mxCell>
        <mxCell id="aPp81kiOwZsW8xP06F8O-12" value="captureEvent(name, props)" style="whiteSpace=wrap;strokeWidth=2;" vertex="1" parent="aPp81kiOwZsW8xP06F8O-1">
          <mxGeometry x="693" y="46" width="256" height="54" as="geometry" />
        </mxCell>
        <mxCell id="aPp81kiOwZsW8xP06F8O-13" value="" style="curved=1;startArrow=none;endArrow=block;exitX=0.22;exitY=1;entryX=0.5;entryY=0;rounded=0;" edge="1" parent="aPp81kiOwZsW8xP06F8O-1" source="aPp81kiOwZsW8xP06F8O-2" target="aPp81kiOwZsW8xP06F8O-3">
          <mxGeometry relative="1" as="geometry">
            <Array as="points">
              <mxPoint x="142" y="288" />
            </Array>
          </mxGeometry>
        </mxCell>
        <mxCell id="aPp81kiOwZsW8xP06F8O-14" value="" style="curved=1;startArrow=none;endArrow=block;exitX=0.86;exitY=1;entryX=0.5;entryY=0;rounded=0;" edge="1" parent="aPp81kiOwZsW8xP06F8O-1" source="aPp81kiOwZsW8xP06F8O-2" target="aPp81kiOwZsW8xP06F8O-4">
          <mxGeometry relative="1" as="geometry">
            <Array as="points">
              <mxPoint x="330" y="288" />
            </Array>
          </mxGeometry>
        </mxCell>
        <mxCell id="aPp81kiOwZsW8xP06F8O-15" value="" style="curved=1;startArrow=none;endArrow=block;exitX=0.5;exitY=1;entryX=0.5;entryY=0;rounded=0;" edge="1" parent="aPp81kiOwZsW8xP06F8O-1" source="aPp81kiOwZsW8xP06F8O-4" target="aPp81kiOwZsW8xP06F8O-5">
          <mxGeometry relative="1" as="geometry">
            <Array as="points" />
          </mxGeometry>
        </mxCell>
        <mxCell id="aPp81kiOwZsW8xP06F8O-16" value="" style="curved=1;startArrow=none;endArrow=block;exitX=0.5;exitY=1;entryX=0;entryY=0;rounded=0;" edge="1" parent="aPp81kiOwZsW8xP06F8O-1" source="aPp81kiOwZsW8xP06F8O-5" target="aPp81kiOwZsW8xP06F8O-6">
          <mxGeometry relative="1" as="geometry">
            <Array as="points">
              <mxPoint x="330" y="546" />
            </Array>
          </mxGeometry>
        </mxCell>
        <mxCell id="aPp81kiOwZsW8xP06F8O-17" value="" style="curved=1;startArrow=none;endArrow=block;exitX=0;exitY=0.76;entryX=0.5;entryY=0;rounded=0;" edge="1" parent="aPp81kiOwZsW8xP06F8O-1" source="aPp81kiOwZsW8xP06F8O-6" target="aPp81kiOwZsW8xP06F8O-7">
          <mxGeometry relative="1" as="geometry">
            <Array as="points">
              <mxPoint x="147" y="675" />
            </Array>
          </mxGeometry>
        </mxCell>
        <mxCell id="aPp81kiOwZsW8xP06F8O-18" value="" style="curved=1;startArrow=none;endArrow=block;exitX=0.16;exitY=1;entryX=0.5;entryY=0;rounded=0;" edge="1" parent="aPp81kiOwZsW8xP06F8O-1" source="aPp81kiOwZsW8xP06F8O-6" target="aPp81kiOwZsW8xP06F8O-8">
          <mxGeometry relative="1" as="geometry">
            <Array as="points">
              <mxPoint x="391" y="675" />
            </Array>
          </mxGeometry>
        </mxCell>
        <mxCell id="aPp81kiOwZsW8xP06F8O-19" value="" style="curved=1;startArrow=none;endArrow=block;exitX=0.83;exitY=1;entryX=0.5;entryY=0;rounded=0;" edge="1" parent="aPp81kiOwZsW8xP06F8O-1" source="aPp81kiOwZsW8xP06F8O-6" target="aPp81kiOwZsW8xP06F8O-9">
          <mxGeometry relative="1" as="geometry">
            <Array as="points">
              <mxPoint x="649" y="675" />
            </Array>
          </mxGeometry>
        </mxCell>
        <mxCell id="aPp81kiOwZsW8xP06F8O-20" value="" style="curved=1;startArrow=none;endArrow=block;exitX=1;exitY=0.73;entryX=0.5;entryY=0;rounded=0;" edge="1" parent="aPp81kiOwZsW8xP06F8O-1" source="aPp81kiOwZsW8xP06F8O-6" target="aPp81kiOwZsW8xP06F8O-10">
          <mxGeometry relative="1" as="geometry">
            <Array as="points">
              <mxPoint x="931" y="675" />
            </Array>
          </mxGeometry>
        </mxCell>
        <mxCell id="aPp81kiOwZsW8xP06F8O-21" value="" style="curved=1;startArrow=none;endArrow=block;exitX=0.5;exitY=1;entryX=0.21;entryY=0;rounded=0;" edge="1" parent="aPp81kiOwZsW8xP06F8O-1" source="aPp81kiOwZsW8xP06F8O-10" target="aPp81kiOwZsW8xP06F8O-11">
          <mxGeometry relative="1" as="geometry">
            <Array as="points">
              <mxPoint x="931" y="804" />
            </Array>
          </mxGeometry>
        </mxCell>
        <mxCell id="aPp81kiOwZsW8xP06F8O-22" value="called by many" style="curved=1;dashed=1;dashPattern=2 3;startArrow=none;endArrow=none;exitX=0;exitY=0.79;entryX=0.5;entryY=0;rounded=0;" edge="1" parent="aPp81kiOwZsW8xP06F8O-1" source="aPp81kiOwZsW8xP06F8O-12" target="aPp81kiOwZsW8xP06F8O-2">
          <mxGeometry relative="1" as="geometry">
            <Array as="points">
              <mxPoint x="226" y="148" />
            </Array>
          </mxGeometry>
        </mxCell>
        <mxCell id="aPp81kiOwZsW8xP06F8O-23" value="called by many" style="curved=1;dashed=1;dashPattern=2 3;startArrow=none;endArrow=none;exitX=0.66;exitY=0.99;entryX=1;entryY=0.27;rounded=0;" edge="1" parent="aPp81kiOwZsW8xP06F8O-1" source="aPp81kiOwZsW8xP06F8O-12" target="aPp81kiOwZsW8xP06F8O-6">
          <mxGeometry relative="1" as="geometry">
            <Array as="points">
              <mxPoint x="935" y="148" />
              <mxPoint x="935" y="546" />
            </Array>
          </mxGeometry>
        </mxCell>
        <mxCell id="aPp81kiOwZsW8xP06F8O-24" value="called by many" style="curved=1;dashed=1;dashPattern=2 3;startArrow=none;endArrow=none;exitX=0.86;exitY=0.99;entryX=0.62;entryY=0;rounded=0;" edge="1" parent="aPp81kiOwZsW8xP06F8O-1" source="aPp81kiOwZsW8xP06F8O-12" target="aPp81kiOwZsW8xP06F8O-11">
          <mxGeometry relative="1" as="geometry">
            <Array as="points">
              <mxPoint x="1079" y="148" />
              <mxPoint x="1079" y="804" />
            </Array>
          </mxGeometry>
        </mxCell>
      </root>
    </mxGraphModel>
  </diagram>
</mxfile>
